solid OpenSCAD_Model
  facet normal -1 -0 -0
    outer loop
      vertex -37.5 0 0
      vertex -37.5 0 30
      vertex -37.5 40 0
    endloop
  endfacet
  facet normal -1 0 0
    outer loop
      vertex -37.5 40 0
      vertex -37.5 0 30
      vertex -37.5 40 30
    endloop
  endfacet
  facet normal 0 -1 0
    outer loop
      vertex -15.7277 0 16.7081
      vertex -37.5 0 0
      vertex 37.5 0 0
    endloop
  endfacet
  facet normal 0 -1 0
    outer loop
      vertex -37.5 0 30
      vertex -37.5 0 0
      vertex -21.8838 0 19.0427
    endloop
  endfacet
  facet normal 0 -1 0
    outer loop
      vertex -14.4582 0 18.1411
      vertex -15.7277 0 16.7081
      vertex 37.5 0 0
    endloop
  endfacet
  facet normal 0 -1 0
    outer loop
      vertex -37.5 0 30
      vertex -21.8838 0 19.0427
      vertex -21.8838 0 20.9573
    endloop
  endfacet
  facet normal -0 -1 0
    outer loop
      vertex 18.4821 0 23.9708
      vertex 20.2723 0 23.2919
      vertex 37.5 0 30
    endloop
  endfacet
  facet normal 0 -1 0
    outer loop
      vertex -37.5 0 30
      vertex -21.8838 0 20.9573
      vertex -20.994 0 22.6525
    endloop
  endfacet
  facet normal 0 -1 0
    outer loop
      vertex -17.5179 0 23.9708
      vertex -37.5 0 30
      vertex -19.4184 0 23.7401
    endloop
  endfacet
  facet normal 0 -1 0
    outer loop
      vertex -14.4582 0 21.8589
      vertex -14 0 20
      vertex 37.5 0 0
    endloop
  endfacet
  facet normal 0 -1 0
    outer loop
      vertex 37.5 0 30
      vertex -37.5 0 30
      vertex -17.5179 0 23.9708
    endloop
  endfacet
  facet normal 0 -1 0
    outer loop
      vertex 16.5816 0 16.2599
      vertex -15.7277 0 23.2919
      vertex 37.5 0 0
    endloop
  endfacet
  facet normal 0 -1 0
    outer loop
      vertex -15.7277 0 23.2919
      vertex -14.4582 0 21.8589
      vertex 37.5 0 0
    endloop
  endfacet
  facet normal -0 -1 0
    outer loop
      vertex -17.5179 0 23.9708
      vertex -15.7277 0 23.2919
      vertex 37.5 0 30
    endloop
  endfacet
  facet normal 0 -1 0
    outer loop
      vertex -14 0 20
      vertex -14.4582 0 18.1411
      vertex 37.5 0 0
    endloop
  endfacet
  facet normal -0 -1 0
    outer loop
      vertex -17.5179 0 16.0292
      vertex -37.5 0 0
      vertex -15.7277 0 16.7081
    endloop
  endfacet
  facet normal 0 -1 0
    outer loop
      vertex -19.4184 0 16.2599
      vertex -37.5 0 0
      vertex -17.5179 0 16.0292
    endloop
  endfacet
  facet normal 0 -1 0
    outer loop
      vertex -20.994 0 17.3475
      vertex -37.5 0 0
      vertex -19.4184 0 16.2599
    endloop
  endfacet
  facet normal 0 -1 0
    outer loop
      vertex -21.8838 0 19.0427
      vertex -37.5 0 0
      vertex -20.994 0 17.3475
    endloop
  endfacet
  facet normal 0 -1 0
    outer loop
      vertex 14.1162 0 20.9573
      vertex -15.7277 0 23.2919
      vertex 14.1162 0 19.0427
    endloop
  endfacet
  facet normal 0 -1 0
    outer loop
      vertex 15.006 0 22.6525
      vertex -15.7277 0 23.2919
      vertex 14.1162 0 20.9573
    endloop
  endfacet
  facet normal -0 -1 0
    outer loop
      vertex 20.2723 0 23.2919
      vertex 21.5418 0 21.8589
      vertex 37.5 0 30
    endloop
  endfacet
  facet normal 0 -1 0
    outer loop
      vertex 16.5816 0 23.7401
      vertex -15.7277 0 23.2919
      vertex 15.006 0 22.6525
    endloop
  endfacet
  facet normal 0 -1 0
    outer loop
      vertex 37.5 0 30
      vertex -15.7277 0 23.2919
      vertex 16.5816 0 23.7401
    endloop
  endfacet
  facet normal 0 -1 0
    outer loop
      vertex 37.5 0 30
      vertex 16.5816 0 23.7401
      vertex 18.4821 0 23.9708
    endloop
  endfacet
  facet normal 0 -1 0
    outer loop
      vertex 18.4821 0 16.0292
      vertex 16.5816 0 16.2599
      vertex 37.5 0 0
    endloop
  endfacet
  facet normal 0 -1 0
    outer loop
      vertex 37.5 0 30
      vertex 21.5418 0 21.8589
      vertex 37.5 0 0
    endloop
  endfacet
  facet normal 0 -1 0
    outer loop
      vertex 21.5418 0 21.8589
      vertex 22 0 20
      vertex 37.5 0 0
    endloop
  endfacet
  facet normal 0 -1 0
    outer loop
      vertex 22 0 20
      vertex 21.5418 0 18.1411
      vertex 37.5 0 0
    endloop
  endfacet
  facet normal 0 -1 0
    outer loop
      vertex 21.5418 0 18.1411
      vertex 20.2723 0 16.7081
      vertex 37.5 0 0
    endloop
  endfacet
  facet normal 0 -1 0
    outer loop
      vertex 20.2723 0 16.7081
      vertex 18.4821 0 16.0292
      vertex 37.5 0 0
    endloop
  endfacet
  facet normal 0 -1 0
    outer loop
      vertex 15.006 0 17.3475
      vertex -15.7277 0 23.2919
      vertex 16.5816 0 16.2599
    endloop
  endfacet
  facet normal 0 -1 0
    outer loop
      vertex 14.1162 0 19.0427
      vertex -15.7277 0 23.2919
      vertex 15.006 0 17.3475
    endloop
  endfacet
  facet normal 0 -1 -0
    outer loop
      vertex -20.994 0 22.6525
      vertex -19.4184 0 23.7401
      vertex -37.5 0 30
    endloop
  endfacet
  facet normal -0 -0 -1
    outer loop
      vertex -15.7277 27.2919 0
      vertex -37.5 40 0
      vertex 37.5 0 0
    endloop
  endfacet
  facet normal 0 -0 -1
    outer loop
      vertex 18.4821 27.9708 0
      vertex -37.5 40 0
      vertex 37.5 40 0
    endloop
  endfacet
  facet normal 0 -0 -1
    outer loop
      vertex -37.5 0 0
      vertex -37.5 40 0
      vertex -21.8838 24.9573 0
    endloop
  endfacet
  facet normal 0 0 -1
    outer loop
      vertex -37.5 0 0
      vertex -21.8838 24.9573 0
      vertex -21.8838 23.0427 0
    endloop
  endfacet
  facet normal 0 0 -1
    outer loop
      vertex -37.5 0 0
      vertex -21.8838 23.0427 0
      vertex -20.994 21.3475 0
    endloop
  endfacet
  facet normal 0 0 -1
    outer loop
      vertex -37.5 0 0
      vertex -20.994 21.3475 0
      vertex -19.4184 20.2599 0
    endloop
  endfacet
  facet normal -0 0 -1
    outer loop
      vertex -37.5 0 0
      vertex -19.4184 20.2599 0
      vertex 37.5 0 0
    endloop
  endfacet
  facet normal 0 0 -1
    outer loop
      vertex -19.4184 20.2599 0
      vertex -17.5179 20.0292 0
      vertex 37.5 0 0
    endloop
  endfacet
  facet normal 0 0 -1
    outer loop
      vertex -14.4582 22.1411 0
      vertex 37.5 0 0
      vertex -15.7277 20.7081 0
    endloop
  endfacet
  facet normal 0 0 -1
    outer loop
      vertex 18.4821 20.0292 0
      vertex 37.5 0 0
      vertex 16.5816 20.2599 0
    endloop
  endfacet
  facet normal 0 -0 -1
    outer loop
      vertex -19.4184 27.7401 0
      vertex -37.5 40 0
      vertex -17.5179 27.9708 0
    endloop
  endfacet
  facet normal -0 0 -1
    outer loop
      vertex -14.4582 22.1411 0
      vertex -14 24 0
      vertex 37.5 0 0
    endloop
  endfacet
  facet normal 0 -0 -1
    outer loop
      vertex -20.994 26.6525 0
      vertex -37.5 40 0
      vertex -19.4184 27.7401 0
    endloop
  endfacet
  facet normal -0 -0 -1
    outer loop
      vertex -14 24 0
      vertex -14.4582 25.8589 0
      vertex 37.5 0 0
    endloop
  endfacet
  facet normal -0 -0 -1
    outer loop
      vertex -17.5179 27.9708 0
      vertex -37.5 40 0
      vertex -15.7277 27.2919 0
    endloop
  endfacet
  facet normal -0 -0 -1
    outer loop
      vertex -14.4582 25.8589 0
      vertex -15.7277 27.2919 0
      vertex 37.5 0 0
    endloop
  endfacet
  facet normal 0 -0 -1
    outer loop
      vertex -21.8838 24.9573 0
      vertex -37.5 40 0
      vertex -20.994 26.6525 0
    endloop
  endfacet
  facet normal 0 0 -1
    outer loop
      vertex 14.1162 23.0427 0
      vertex -37.5 40 0
      vertex 14.1162 24.9573 0
    endloop
  endfacet
  facet normal 0 0 -1
    outer loop
      vertex 15.006 21.3475 0
      vertex -37.5 40 0
      vertex 14.1162 23.0427 0
    endloop
  endfacet
  facet normal 0 0 -1
    outer loop
      vertex 37.5 0 0
      vertex -37.5 40 0
      vertex 15.006 21.3475 0
    endloop
  endfacet
  facet normal 0 0 -1
    outer loop
      vertex 37.5 0 0
      vertex 15.006 21.3475 0
      vertex 16.5816 20.2599 0
    endloop
  endfacet
  facet normal 0 0 -1
    outer loop
      vertex 20.2723 20.7081 0
      vertex 37.5 0 0
      vertex 18.4821 20.0292 0
    endloop
  endfacet
  facet normal -0 0 -1
    outer loop
      vertex 18.4821 27.9708 0
      vertex 37.5 40 0
      vertex 20.2723 27.2919 0
    endloop
  endfacet
  facet normal 0 0 -1
    outer loop
      vertex 37.5 0 0
      vertex 20.2723 20.7081 0
      vertex 37.5 40 0
    endloop
  endfacet
  facet normal 0 0 -1
    outer loop
      vertex 20.2723 20.7081 0
      vertex 21.5418 22.1411 0
      vertex 37.5 40 0
    endloop
  endfacet
  facet normal 0 0 -1
    outer loop
      vertex 21.5418 22.1411 0
      vertex 22 24 0
      vertex 37.5 40 0
    endloop
  endfacet
  facet normal 0 -0 -1
    outer loop
      vertex 22 24 0
      vertex 21.5418 25.8589 0
      vertex 37.5 40 0
    endloop
  endfacet
  facet normal 0 -0 -1
    outer loop
      vertex 21.5418 25.8589 0
      vertex 20.2723 27.2919 0
      vertex 37.5 40 0
    endloop
  endfacet
  facet normal 0 -0 -1
    outer loop
      vertex 16.5816 27.7401 0
      vertex -37.5 40 0
      vertex 18.4821 27.9708 0
    endloop
  endfacet
  facet normal 0 -0 -1
    outer loop
      vertex 15.006 26.6525 0
      vertex -37.5 40 0
      vertex 16.5816 27.7401 0
    endloop
  endfacet
  facet normal 0 -0 -1
    outer loop
      vertex 14.1162 24.9573 0
      vertex -37.5 40 0
      vertex 15.006 26.6525 0
    endloop
  endfacet
  facet normal 0 0 -1
    outer loop
      vertex -15.7277 20.7081 0
      vertex 37.5 0 0
      vertex -17.5179 20.0292 0
    endloop
  endfacet
  facet normal 0 1 -0
    outer loop
      vertex 30.5 40 7
      vertex 37.5 40 0
      vertex -30.5 40 7
    endloop
  endfacet
  facet normal 0 1 0
    outer loop
      vertex -37.5 40 0
      vertex -37.5 40 30
      vertex -30.5 40 7
    endloop
  endfacet
  facet normal 0 1 0
    outer loop
      vertex -37.5 40 0
      vertex -30.5 40 7
      vertex 37.5 40 0
    endloop
  endfacet
  facet normal 0 1 0
    outer loop
      vertex 37.5 40 0
      vertex 30.5 40 7
      vertex 30.5 40 30
    endloop
  endfacet
  facet normal 0 1 0
    outer loop
      vertex 37.5 40 0
      vertex 30.5 40 30
      vertex 37.5 40 30
    endloop
  endfacet
  facet normal 0 1 0
    outer loop
      vertex -30.5 40 7
      vertex -37.5 40 30
      vertex -30.5 40 30
    endloop
  endfacet
  facet normal 0 -0 1
    outer loop
      vertex -30.5 7 30
      vertex -37.5 0 30
      vertex 37.5 0 30
    endloop
  endfacet
  facet normal 0 0 1
    outer loop
      vertex -30.5 7 30
      vertex -30.5 40 30
      vertex -37.5 40 30
    endloop
  endfacet
  facet normal 0 0 1
    outer loop
      vertex 37.5 40 30
      vertex 30.5 40 30
      vertex 37.5 0 30
    endloop
  endfacet
  facet normal 0 -0 1
    outer loop
      vertex 30.5 40 30
      vertex 30.5 7 30
      vertex 37.5 0 30
    endloop
  endfacet
  facet normal 0 -0 1
    outer loop
      vertex -37.5 40 30
      vertex -37.5 0 30
      vertex -30.5 7 30
    endloop
  endfacet
  facet normal 0 -0 1
    outer loop
      vertex 30.5 7 30
      vertex -30.5 7 30
      vertex 37.5 0 30
    endloop
  endfacet
  facet normal 1 0 -0
    outer loop
      vertex 37.5 0 30
      vertex 37.5 0 0
      vertex 37.5 40 0
    endloop
  endfacet
  facet normal 1 0 0
    outer loop
      vertex 37.5 40 30
      vertex 37.5 0 30
      vertex 37.5 40 0
    endloop
  endfacet
  facet normal 1 0 0
    outer loop
      vertex -21.8838 7 19.0427
      vertex -21.8838 7 20.9573
      vertex -21.8838 0 20.9573
    endloop
  endfacet
  facet normal 1 0 0
    outer loop
      vertex -21.8838 0 19.0427
      vertex -21.8838 7 19.0427
      vertex -21.8838 0 20.9573
    endloop
  endfacet
  facet normal 0.885456 2.35861e-16 0.464723
    outer loop
      vertex -20.994 0 17.3475
      vertex -20.994 7 17.3475
      vertex -21.8838 7 19.0427
    endloop
  endfacet
  facet normal 0.885456 0 0.464723
    outer loop
      vertex -21.8838 0 19.0427
      vertex -20.994 0 17.3475
      vertex -21.8838 7 19.0427
    endloop
  endfacet
  facet normal 0.568065 4.17689e-16 0.822984
    outer loop
      vertex -19.4184 0 16.2599
      vertex -19.4184 7 16.2599
      vertex -20.994 7 17.3475
    endloop
  endfacet
  facet normal 0.568065 4.17689e-16 0.822984
    outer loop
      vertex -20.994 0 17.3475
      vertex -19.4184 0 16.2599
      vertex -20.994 7 17.3475
    endloop
  endfacet
  facet normal 0.120536 5.0383e-16 0.992709
    outer loop
      vertex -17.5179 0 16.0292
      vertex -17.5179 7 16.0292
      vertex -19.4184 7 16.2599
    endloop
  endfacet
  facet normal 0.120536 5.0383e-16 0.992709
    outer loop
      vertex -19.4184 0 16.2599
      vertex -17.5179 0 16.0292
      vertex -19.4184 7 16.2599
    endloop
  endfacet
  facet normal -0.354605 4.74549e-16 0.935016
    outer loop
      vertex -15.7277 0 16.7081
      vertex -15.7277 7 16.7081
      vertex -17.5179 7 16.0292
    endloop
  endfacet
  facet normal -0.354605 4.74549e-16 0.935016
    outer loop
      vertex -17.5179 0 16.0292
      vertex -15.7277 0 16.7081
      vertex -17.5179 7 16.0292
    endloop
  endfacet
  facet normal -0.748511 3.36555e-16 0.663123
    outer loop
      vertex -14.4582 7 18.1411
      vertex -15.7277 7 16.7081
      vertex -14.4582 0 18.1411
    endloop
  endfacet
  facet normal -0.748511 3.55186e-16 0.663123
    outer loop
      vertex -14.4582 0 18.1411
      vertex -15.7277 7 16.7081
      vertex -15.7277 0 16.7081
    endloop
  endfacet
  facet normal -0.970942 0 0.239316
    outer loop
      vertex -14 7 20
      vertex -14.4582 7 18.1411
      vertex -14 0 20
    endloop
  endfacet
  facet normal -0.970942 1.26852e-16 0.239316
    outer loop
      vertex -14 0 20
      vertex -14.4582 7 18.1411
      vertex -14.4582 0 18.1411
    endloop
  endfacet
  facet normal -0.970942 0 -0.239316
    outer loop
      vertex -14 7 20
      vertex -14 0 20
      vertex -14.4582 7 21.8589
    endloop
  endfacet
  facet normal -0.970942 -1.2146e-16 -0.239316
    outer loop
      vertex -14.4582 7 21.8589
      vertex -14 0 20
      vertex -14.4582 0 21.8589
    endloop
  endfacet
  facet normal -0.748511 -3.36555e-16 -0.663123
    outer loop
      vertex -14.4582 7 21.8589
      vertex -14.4582 0 21.8589
      vertex -15.7277 7 23.2919
    endloop
  endfacet
  facet normal -0.748511 -3.36555e-16 -0.663123
    outer loop
      vertex -15.7277 7 23.2919
      vertex -14.4582 0 21.8589
      vertex -15.7277 0 23.2919
    endloop
  endfacet
  facet normal -0.354605 -4.74549e-16 -0.935016
    outer loop
      vertex -15.7277 7 23.2919
      vertex -15.7277 0 23.2919
      vertex -17.5179 7 23.9708
    endloop
  endfacet
  facet normal -0.354605 -4.74549e-16 -0.935016
    outer loop
      vertex -17.5179 7 23.9708
      vertex -15.7277 0 23.2919
      vertex -17.5179 0 23.9708
    endloop
  endfacet
  facet normal 0.120536 -5.0383e-16 -0.992709
    outer loop
      vertex -17.5179 7 23.9708
      vertex -17.5179 0 23.9708
      vertex -19.4184 7 23.7401
    endloop
  endfacet
  facet normal 0.120536 -5.0383e-16 -0.992709
    outer loop
      vertex -19.4184 7 23.7401
      vertex -17.5179 0 23.9708
      vertex -19.4184 0 23.7401
    endloop
  endfacet
  facet normal 0.568065 -4.17689e-16 -0.822984
    outer loop
      vertex -19.4184 7 23.7401
      vertex -19.4184 0 23.7401
      vertex -20.994 7 22.6525
    endloop
  endfacet
  facet normal 0.568065 -4.17689e-16 -0.822984
    outer loop
      vertex -20.994 7 22.6525
      vertex -19.4184 0 23.7401
      vertex -20.994 0 22.6525
    endloop
  endfacet
  facet normal 0.885456 -2.28334e-16 -0.464723
    outer loop
      vertex -21.8838 7 20.9573
      vertex -20.994 7 22.6525
      vertex -20.994 0 22.6525
    endloop
  endfacet
  facet normal 0.885456 -2.35861e-16 -0.464723
    outer loop
      vertex -21.8838 0 20.9573
      vertex -21.8838 7 20.9573
      vertex -20.994 0 22.6525
    endloop
  endfacet
  facet normal 1 0 0
    outer loop
      vertex 14.1162 7 19.0427
      vertex 14.1162 7 20.9573
      vertex 14.1162 0 20.9573
    endloop
  endfacet
  facet normal 1 0 0
    outer loop
      vertex 14.1162 0 19.0427
      vertex 14.1162 7 19.0427
      vertex 14.1162 0 20.9573
    endloop
  endfacet
  facet normal 0.885456 2.35861e-16 0.464723
    outer loop
      vertex 15.006 0 17.3475
      vertex 15.006 7 17.3475
      vertex 14.1162 7 19.0427
    endloop
  endfacet
  facet normal 0.885456 0 0.464723
    outer loop
      vertex 14.1162 0 19.0427
      vertex 15.006 0 17.3475
      vertex 14.1162 7 19.0427
    endloop
  endfacet
  facet normal 0.568065 4.17689e-16 0.822984
    outer loop
      vertex 16.5816 0 16.2599
      vertex 16.5816 7 16.2599
      vertex 15.006 7 17.3475
    endloop
  endfacet
  facet normal 0.568065 4.17689e-16 0.822984
    outer loop
      vertex 15.006 0 17.3475
      vertex 16.5816 0 16.2599
      vertex 15.006 7 17.3475
    endloop
  endfacet
  facet normal 0.120536 5.0383e-16 0.992709
    outer loop
      vertex 18.4821 0 16.0292
      vertex 18.4821 7 16.0292
      vertex 16.5816 7 16.2599
    endloop
  endfacet
  facet normal 0.120536 5.0383e-16 0.992709
    outer loop
      vertex 16.5816 0 16.2599
      vertex 18.4821 0 16.0292
      vertex 16.5816 7 16.2599
    endloop
  endfacet
  facet normal -0.354605 4.74549e-16 0.935016
    outer loop
      vertex 20.2723 0 16.7081
      vertex 20.2723 7 16.7081
      vertex 18.4821 7 16.0292
    endloop
  endfacet
  facet normal -0.354605 4.74549e-16 0.935016
    outer loop
      vertex 18.4821 0 16.0292
      vertex 20.2723 0 16.7081
      vertex 18.4821 7 16.0292
    endloop
  endfacet
  facet normal -0.748511 3.36555e-16 0.663123
    outer loop
      vertex 21.5418 7 18.1411
      vertex 20.2723 7 16.7081
      vertex 21.5418 0 18.1411
    endloop
  endfacet
  facet normal -0.748511 3.55186e-16 0.663123
    outer loop
      vertex 21.5418 0 18.1411
      vertex 20.2723 7 16.7081
      vertex 20.2723 0 16.7081
    endloop
  endfacet
  facet normal -0.970942 0 0.239316
    outer loop
      vertex 22 7 20
      vertex 21.5418 7 18.1411
      vertex 22 0 20
    endloop
  endfacet
  facet normal -0.970942 1.26852e-16 0.239316
    outer loop
      vertex 22 0 20
      vertex 21.5418 7 18.1411
      vertex 21.5418 0 18.1411
    endloop
  endfacet
  facet normal -0.970942 0 -0.239316
    outer loop
      vertex 22 7 20
      vertex 22 0 20
      vertex 21.5418 7 21.8589
    endloop
  endfacet
  facet normal -0.970942 -1.2146e-16 -0.239316
    outer loop
      vertex 21.5418 7 21.8589
      vertex 22 0 20
      vertex 21.5418 0 21.8589
    endloop
  endfacet
  facet normal -0.748511 -3.36555e-16 -0.663123
    outer loop
      vertex 21.5418 7 21.8589
      vertex 21.5418 0 21.8589
      vertex 20.2723 7 23.2919
    endloop
  endfacet
  facet normal -0.748511 -3.36555e-16 -0.663123
    outer loop
      vertex 20.2723 7 23.2919
      vertex 21.5418 0 21.8589
      vertex 20.2723 0 23.2919
    endloop
  endfacet
  facet normal -0.354605 -4.74549e-16 -0.935016
    outer loop
      vertex 20.2723 7 23.2919
      vertex 20.2723 0 23.2919
      vertex 18.4821 7 23.9708
    endloop
  endfacet
  facet normal -0.354605 -4.74549e-16 -0.935016
    outer loop
      vertex 18.4821 7 23.9708
      vertex 20.2723 0 23.2919
      vertex 18.4821 0 23.9708
    endloop
  endfacet
  facet normal 0.120536 -5.0383e-16 -0.992709
    outer loop
      vertex 18.4821 7 23.9708
      vertex 18.4821 0 23.9708
      vertex 16.5816 7 23.7401
    endloop
  endfacet
  facet normal 0.120536 -5.0383e-16 -0.992709
    outer loop
      vertex 16.5816 7 23.7401
      vertex 18.4821 0 23.9708
      vertex 16.5816 0 23.7401
    endloop
  endfacet
  facet normal 0.568065 -4.17689e-16 -0.822984
    outer loop
      vertex 16.5816 7 23.7401
      vertex 16.5816 0 23.7401
      vertex 15.006 7 22.6525
    endloop
  endfacet
  facet normal 0.568065 -4.17689e-16 -0.822984
    outer loop
      vertex 15.006 7 22.6525
      vertex 16.5816 0 23.7401
      vertex 15.006 0 22.6525
    endloop
  endfacet
  facet normal 0.885456 -2.41019e-16 -0.464723
    outer loop
      vertex 14.1162 7 20.9573
      vertex 15.006 7 22.6525
      vertex 15.006 0 22.6525
    endloop
  endfacet
  facet normal 0.885456 -2.35861e-16 -0.464723
    outer loop
      vertex 14.1162 0 20.9573
      vertex 14.1162 7 20.9573
      vertex 15.006 0 22.6525
    endloop
  endfacet
  facet normal 1 0 0
    outer loop
      vertex -21.8838 24.9573 0
      vertex -21.8838 24.9573 7
      vertex -21.8838 23.0427 7
    endloop
  endfacet
  facet normal 1 0 0
    outer loop
      vertex -21.8838 23.0427 0
      vertex -21.8838 24.9573 0
      vertex -21.8838 23.0427 7
    endloop
  endfacet
  facet normal 0.885456 -0.464723 0
    outer loop
      vertex -20.994 26.6525 0
      vertex -20.994 26.6525 7
      vertex -21.8838 24.9573 7
    endloop
  endfacet
  facet normal 0.885456 -0.464723 0
    outer loop
      vertex -21.8838 24.9573 0
      vertex -20.994 26.6525 0
      vertex -21.8838 24.9573 7
    endloop
  endfacet
  facet normal 0.568065 -0.822984 0
    outer loop
      vertex -19.4184 27.7401 0
      vertex -19.4184 27.7401 7
      vertex -20.994 26.6525 7
    endloop
  endfacet
  facet normal 0.568065 -0.822984 0
    outer loop
      vertex -20.994 26.6525 0
      vertex -19.4184 27.7401 0
      vertex -20.994 26.6525 7
    endloop
  endfacet
  facet normal 0.120536 -0.992709 0
    outer loop
      vertex -17.5179 27.9708 0
      vertex -17.5179 27.9708 7
      vertex -19.4184 27.7401 7
    endloop
  endfacet
  facet normal 0.120536 -0.992709 0
    outer loop
      vertex -19.4184 27.7401 0
      vertex -17.5179 27.9708 0
      vertex -19.4184 27.7401 7
    endloop
  endfacet
  facet normal -0.354605 -0.935016 -0
    outer loop
      vertex -15.7277 27.2919 0
      vertex -15.7277 27.2919 7
      vertex -17.5179 27.9708 7
    endloop
  endfacet
  facet normal -0.354605 -0.935016 -0
    outer loop
      vertex -17.5179 27.9708 0
      vertex -15.7277 27.2919 0
      vertex -17.5179 27.9708 7
    endloop
  endfacet
  facet normal -0.748511 -0.663123 0
    outer loop
      vertex -14.4582 25.8589 7
      vertex -15.7277 27.2919 7
      vertex -14.4582 25.8589 0
    endloop
  endfacet
  facet normal -0.748511 -0.663123 0
    outer loop
      vertex -14.4582 25.8589 0
      vertex -15.7277 27.2919 7
      vertex -15.7277 27.2919 0
    endloop
  endfacet
  facet normal -0.970942 -0.239316 0
    outer loop
      vertex -14 24 7
      vertex -14.4582 25.8589 7
      vertex -14 24 0
    endloop
  endfacet
  facet normal -0.970942 -0.239316 0
    outer loop
      vertex -14 24 0
      vertex -14.4582 25.8589 7
      vertex -14.4582 25.8589 0
    endloop
  endfacet
  facet normal -0.970942 0.239316 0
    outer loop
      vertex -14 24 7
      vertex -14 24 0
      vertex -14.4582 22.1411 7
    endloop
  endfacet
  facet normal -0.970942 0.239316 0
    outer loop
      vertex -14.4582 22.1411 7
      vertex -14 24 0
      vertex -14.4582 22.1411 0
    endloop
  endfacet
  facet normal -0.748511 0.663123 0
    outer loop
      vertex -14.4582 22.1411 7
      vertex -14.4582 22.1411 0
      vertex -15.7277 20.7081 7
    endloop
  endfacet
  facet normal -0.748511 0.663123 0
    outer loop
      vertex -15.7277 20.7081 7
      vertex -14.4582 22.1411 0
      vertex -15.7277 20.7081 0
    endloop
  endfacet
  facet normal -0.354605 0.935016 0
    outer loop
      vertex -15.7277 20.7081 7
      vertex -15.7277 20.7081 0
      vertex -17.5179 20.0292 7
    endloop
  endfacet
  facet normal -0.354605 0.935016 0
    outer loop
      vertex -17.5179 20.0292 7
      vertex -15.7277 20.7081 0
      vertex -17.5179 20.0292 0
    endloop
  endfacet
  facet normal 0.120536 0.992709 -0
    outer loop
      vertex -17.5179 20.0292 7
      vertex -17.5179 20.0292 0
      vertex -19.4184 20.2599 7
    endloop
  endfacet
  facet normal 0.120536 0.992709 -0
    outer loop
      vertex -19.4184 20.2599 7
      vertex -17.5179 20.0292 0
      vertex -19.4184 20.2599 0
    endloop
  endfacet
  facet normal 0.568065 0.822984 -0
    outer loop
      vertex -19.4184 20.2599 7
      vertex -19.4184 20.2599 0
      vertex -20.994 21.3475 7
    endloop
  endfacet
  facet normal 0.568065 0.822984 -0
    outer loop
      vertex -20.994 21.3475 7
      vertex -19.4184 20.2599 0
      vertex -20.994 21.3475 0
    endloop
  endfacet
  facet normal 0.885456 0.464723 0
    outer loop
      vertex -21.8838 23.0427 7
      vertex -20.994 21.3475 7
      vertex -20.994 21.3475 0
    endloop
  endfacet
  facet normal 0.885456 0.464723 0
    outer loop
      vertex -21.8838 23.0427 0
      vertex -21.8838 23.0427 7
      vertex -20.994 21.3475 0
    endloop
  endfacet
  facet normal 1 0 0
    outer loop
      vertex 14.1162 24.9573 0
      vertex 14.1162 24.9573 7
      vertex 14.1162 23.0427 7
    endloop
  endfacet
  facet normal 1 0 0
    outer loop
      vertex 14.1162 23.0427 0
      vertex 14.1162 24.9573 0
      vertex 14.1162 23.0427 7
    endloop
  endfacet
  facet normal 0.885456 -0.464723 0
    outer loop
      vertex 15.006 26.6525 0
      vertex 15.006 26.6525 7
      vertex 14.1162 24.9573 7
    endloop
  endfacet
  facet normal 0.885456 -0.464723 0
    outer loop
      vertex 14.1162 24.9573 0
      vertex 15.006 26.6525 0
      vertex 14.1162 24.9573 7
    endloop
  endfacet
  facet normal 0.568065 -0.822984 0
    outer loop
      vertex 16.5816 27.7401 0
      vertex 16.5816 27.7401 7
      vertex 15.006 26.6525 7
    endloop
  endfacet
  facet normal 0.568065 -0.822984 0
    outer loop
      vertex 15.006 26.6525 0
      vertex 16.5816 27.7401 0
      vertex 15.006 26.6525 7
    endloop
  endfacet
  facet normal 0.120536 -0.992709 0
    outer loop
      vertex 18.4821 27.9708 0
      vertex 18.4821 27.9708 7
      vertex 16.5816 27.7401 7
    endloop
  endfacet
  facet normal 0.120536 -0.992709 0
    outer loop
      vertex 16.5816 27.7401 0
      vertex 18.4821 27.9708 0
      vertex 16.5816 27.7401 7
    endloop
  endfacet
  facet normal -0.354605 -0.935016 -0
    outer loop
      vertex 20.2723 27.2919 0
      vertex 20.2723 27.2919 7
      vertex 18.4821 27.9708 7
    endloop
  endfacet
  facet normal -0.354605 -0.935016 -0
    outer loop
      vertex 18.4821 27.9708 0
      vertex 20.2723 27.2919 0
      vertex 18.4821 27.9708 7
    endloop
  endfacet
  facet normal -0.748511 -0.663123 0
    outer loop
      vertex 21.5418 25.8589 7
      vertex 20.2723 27.2919 7
      vertex 21.5418 25.8589 0
    endloop
  endfacet
  facet normal -0.748511 -0.663123 0
    outer loop
      vertex 21.5418 25.8589 0
      vertex 20.2723 27.2919 7
      vertex 20.2723 27.2919 0
    endloop
  endfacet
  facet normal -0.970942 -0.239316 0
    outer loop
      vertex 22 24 7
      vertex 21.5418 25.8589 7
      vertex 22 24 0
    endloop
  endfacet
  facet normal -0.970942 -0.239316 0
    outer loop
      vertex 22 24 0
      vertex 21.5418 25.8589 7
      vertex 21.5418 25.8589 0
    endloop
  endfacet
  facet normal -0.970942 0.239316 0
    outer loop
      vertex 22 24 7
      vertex 22 24 0
      vertex 21.5418 22.1411 7
    endloop
  endfacet
  facet normal -0.970942 0.239316 0
    outer loop
      vertex 21.5418 22.1411 7
      vertex 22 24 0
      vertex 21.5418 22.1411 0
    endloop
  endfacet
  facet normal -0.748511 0.663123 0
    outer loop
      vertex 21.5418 22.1411 7
      vertex 21.5418 22.1411 0
      vertex 20.2723 20.7081 7
    endloop
  endfacet
  facet normal -0.748511 0.663123 0
    outer loop
      vertex 20.2723 20.7081 7
      vertex 21.5418 22.1411 0
      vertex 20.2723 20.7081 0
    endloop
  endfacet
  facet normal -0.354605 0.935016 0
    outer loop
      vertex 20.2723 20.7081 7
      vertex 20.2723 20.7081 0
      vertex 18.4821 20.0292 7
    endloop
  endfacet
  facet normal -0.354605 0.935016 0
    outer loop
      vertex 18.4821 20.0292 7
      vertex 20.2723 20.7081 0
      vertex 18.4821 20.0292 0
    endloop
  endfacet
  facet normal 0.120536 0.992709 -0
    outer loop
      vertex 18.4821 20.0292 7
      vertex 18.4821 20.0292 0
      vertex 16.5816 20.2599 7
    endloop
  endfacet
  facet normal 0.120536 0.992709 -0
    outer loop
      vertex 16.5816 20.2599 7
      vertex 18.4821 20.0292 0
      vertex 16.5816 20.2599 0
    endloop
  endfacet
  facet normal 0.568065 0.822984 -0
    outer loop
      vertex 16.5816 20.2599 7
      vertex 16.5816 20.2599 0
      vertex 15.006 21.3475 7
    endloop
  endfacet
  facet normal 0.568065 0.822984 -0
    outer loop
      vertex 15.006 21.3475 7
      vertex 16.5816 20.2599 0
      vertex 15.006 21.3475 0
    endloop
  endfacet
  facet normal 0.885456 0.464723 0
    outer loop
      vertex 14.1162 23.0427 7
      vertex 15.006 21.3475 7
      vertex 15.006 21.3475 0
    endloop
  endfacet
  facet normal 0.885456 0.464723 0
    outer loop
      vertex 14.1162 23.0427 0
      vertex 14.1162 23.0427 7
      vertex 15.006 21.3475 0
    endloop
  endfacet
  facet normal -1 0 0
    outer loop
      vertex 30.5 40 30
      vertex 30.5 40 7
      vertex 30.5 7 30
    endloop
  endfacet
  facet normal -1 0 0
    outer loop
      vertex 30.5 7 30
      vertex 30.5 40 7
      vertex 30.5 7 7
    endloop
  endfacet
  facet normal 0 0 1
    outer loop
      vertex 15.006 26.6525 7
      vertex 30.5 40 7
      vertex -30.5 40 7
    endloop
  endfacet
  facet normal 0 0 1
    outer loop
      vertex -15.7277 27.2919 7
      vertex 30.5 7 7
      vertex -30.5 40 7
    endloop
  endfacet
  facet normal 0 0 1
    outer loop
      vertex -30.5 7 7
      vertex -21.8838 24.9573 7
      vertex -30.5 40 7
    endloop
  endfacet
  facet normal 0 0 1
    outer loop
      vertex -21.8838 24.9573 7
      vertex -20.994 26.6525 7
      vertex -30.5 40 7
    endloop
  endfacet
  facet normal 0 0 1
    outer loop
      vertex -15.7277 20.7081 7
      vertex -17.5179 20.0292 7
      vertex -30.5 7 7
    endloop
  endfacet
  facet normal 0 0 1
    outer loop
      vertex -20.994 26.6525 7
      vertex -19.4184 27.7401 7
      vertex -30.5 40 7
    endloop
  endfacet
  facet normal 0 0 1
    outer loop
      vertex -19.4184 27.7401 7
      vertex -17.5179 27.9708 7
      vertex -30.5 40 7
    endloop
  endfacet
  facet normal 0 0 1
    outer loop
      vertex -17.5179 27.9708 7
      vertex -15.7277 27.2919 7
      vertex -30.5 40 7
    endloop
  endfacet
  facet normal 0 0 1
    outer loop
      vertex -14.4582 25.8589 7
      vertex -14 24 7
      vertex 30.5 7 7
    endloop
  endfacet
  facet normal 0 -0 1
    outer loop
      vertex 22 24 7
      vertex 21.5418 22.1411 7
      vertex 30.5 7 7
    endloop
  endfacet
  facet normal 0 0 1
    outer loop
      vertex -15.7277 20.7081 7
      vertex 30.5 7 7
      vertex -14.4582 22.1411 7
    endloop
  endfacet
  facet normal 0 0 1
    outer loop
      vertex 16.5816 27.7401 7
      vertex 18.4821 27.9708 7
      vertex 30.5 40 7
    endloop
  endfacet
  facet normal 0 0 1
    outer loop
      vertex -30.5 7 7
      vertex 30.5 7 7
      vertex -15.7277 20.7081 7
    endloop
  endfacet
  facet normal 0 0 1
    outer loop
      vertex -30.5 7 7
      vertex -17.5179 20.0292 7
      vertex -19.4184 20.2599 7
    endloop
  endfacet
  facet normal 0 0 1
    outer loop
      vertex -30.5 7 7
      vertex -19.4184 20.2599 7
      vertex -20.994 21.3475 7
    endloop
  endfacet
  facet normal 0 0 1
    outer loop
      vertex -30.5 7 7
      vertex -21.8838 23.0427 7
      vertex -21.8838 24.9573 7
    endloop
  endfacet
  facet normal 0 0 1
    outer loop
      vertex -30.5 7 7
      vertex -20.994 21.3475 7
      vertex -21.8838 23.0427 7
    endloop
  endfacet
  facet normal 0 0 1
    outer loop
      vertex 14.1162 23.0427 7
      vertex 14.1162 24.9573 7
      vertex -30.5 40 7
    endloop
  endfacet
  facet normal 0 0 1
    outer loop
      vertex 14.1162 24.9573 7
      vertex 15.006 26.6525 7
      vertex -30.5 40 7
    endloop
  endfacet
  facet normal -0 0 1
    outer loop
      vertex 16.5816 27.7401 7
      vertex 30.5 40 7
      vertex 15.006 26.6525 7
    endloop
  endfacet
  facet normal 0 0 1
    outer loop
      vertex 20.2723 27.2919 7
      vertex 30.5 40 7
      vertex 18.4821 27.9708 7
    endloop
  endfacet
  facet normal 0 -0 1
    outer loop
      vertex 20.2723 20.7081 7
      vertex 18.4821 20.0292 7
      vertex 30.5 7 7
    endloop
  endfacet
  facet normal 0 0 1
    outer loop
      vertex 21.5418 25.8589 7
      vertex 30.5 40 7
      vertex 20.2723 27.2919 7
    endloop
  endfacet
  facet normal 0 0 1
    outer loop
      vertex 30.5 7 7
      vertex 30.5 40 7
      vertex 21.5418 25.8589 7
    endloop
  endfacet
  facet normal 0 0 1
    outer loop
      vertex 30.5 7 7
      vertex 21.5418 25.8589 7
      vertex 22 24 7
    endloop
  endfacet
  facet normal 0 0 1
    outer loop
      vertex 15.006 21.3475 7
      vertex 14.1162 23.0427 7
      vertex -30.5 40 7
    endloop
  endfacet
  facet normal 0 0 1
    outer loop
      vertex 30.5 7 7
      vertex 21.5418 22.1411 7
      vertex 20.2723 20.7081 7
    endloop
  endfacet
  facet normal 0 0 1
    outer loop
      vertex 30.5 7 7
      vertex 16.5816 20.2599 7
      vertex -30.5 40 7
    endloop
  endfacet
  facet normal 0 0 1
    outer loop
      vertex 30.5 7 7
      vertex 18.4821 20.0292 7
      vertex 16.5816 20.2599 7
    endloop
  endfacet
  facet normal 0 0 1
    outer loop
      vertex 16.5816 20.2599 7
      vertex 15.006 21.3475 7
      vertex -30.5 40 7
    endloop
  endfacet
  facet normal 0 0 1
    outer loop
      vertex -15.7277 27.2919 7
      vertex -14.4582 25.8589 7
      vertex 30.5 7 7
    endloop
  endfacet
  facet normal 0 -0 1
    outer loop
      vertex -14 24 7
      vertex -14.4582 22.1411 7
      vertex 30.5 7 7
    endloop
  endfacet
  facet normal 1 0 0
    outer loop
      vertex -30.5 40 7
      vertex -30.5 40 30
      vertex -30.5 7 30
    endloop
  endfacet
  facet normal 1 0 0
    outer loop
      vertex -30.5 7 7
      vertex -30.5 40 7
      vertex -30.5 7 30
    endloop
  endfacet
  facet normal -0 1 -0
    outer loop
      vertex 16.5816 7 16.2599
      vertex 30.5 7 7
      vertex -30.5 7 30
    endloop
  endfacet
  facet normal 0 1 -0
    outer loop
      vertex -19.4184 7 16.2599
      vertex 30.5 7 7
      vertex -30.5 7 7
    endloop
  endfacet
  facet normal 0 1 0
    outer loop
      vertex -19.4184 7 23.7401
      vertex -30.5 7 30
      vertex -17.5179 7 23.9708
    endloop
  endfacet
  facet normal 0 1 -0
    outer loop
      vertex -30.5 7 30
      vertex -21.8838 7 19.0427
      vertex -30.5 7 7
    endloop
  endfacet
  facet normal 0 1 -0
    outer loop
      vertex -14.4582 7 18.1411
      vertex 30.5 7 7
      vertex -15.7277 7 16.7081
    endloop
  endfacet
  facet normal 0 1 -0
    outer loop
      vertex -21.8838 7 19.0427
      vertex -20.994 7 17.3475
      vertex -30.5 7 7
    endloop
  endfacet
  facet normal -0 1 -0
    outer loop
      vertex -17.5179 7 16.0292
      vertex 30.5 7 7
      vertex -19.4184 7 16.2599
    endloop
  endfacet
  facet normal 0 1 -0
    outer loop
      vertex -20.994 7 17.3475
      vertex -19.4184 7 16.2599
      vertex -30.5 7 7
    endloop
  endfacet
  facet normal 0 1 -0
    outer loop
      vertex -14 7 20
      vertex 30.5 7 7
      vertex -14.4582 7 18.1411
    endloop
  endfacet
  facet normal 0 1 0
    outer loop
      vertex -14.4582 7 21.8589
      vertex 30.5 7 7
      vertex -14 7 20
    endloop
  endfacet
  facet normal 0 1 0
    outer loop
      vertex -15.7277 7 23.2919
      vertex 30.5 7 7
      vertex -14.4582 7 21.8589
    endloop
  endfacet
  facet normal 0 1 0
    outer loop
      vertex -30.5 7 30
      vertex 30.5 7 7
      vertex -15.7277 7 23.2919
    endloop
  endfacet
  facet normal 0 1 0
    outer loop
      vertex -30.5 7 30
      vertex -15.7277 7 23.2919
      vertex -17.5179 7 23.9708
    endloop
  endfacet
  facet normal 0 1 0
    outer loop
      vertex -20.994 7 22.6525
      vertex -30.5 7 30
      vertex -19.4184 7 23.7401
    endloop
  endfacet
  facet normal -0 1 -0
    outer loop
      vertex 18.4821 7 16.0292
      vertex 30.5 7 7
      vertex 16.5816 7 16.2599
    endloop
  endfacet
  facet normal 0 1 0
    outer loop
      vertex -30.5 7 30
      vertex -20.994 7 22.6525
      vertex -21.8838 7 20.9573
    endloop
  endfacet
  facet normal 0 1 0
    outer loop
      vertex -30.5 7 30
      vertex -21.8838 7 20.9573
      vertex -21.8838 7 19.0427
    endloop
  endfacet
  facet normal 0 1 -0
    outer loop
      vertex 22 7 20
      vertex 30.5 7 30
      vertex 21.5418 7 18.1411
    endloop
  endfacet
  facet normal -0 1 0
    outer loop
      vertex 14.1162 7 20.9573
      vertex 14.1162 7 19.0427
      vertex -30.5 7 30
    endloop
  endfacet
  facet normal -0 1 -0
    outer loop
      vertex 14.1162 7 19.0427
      vertex 15.006 7 17.3475
      vertex -30.5 7 30
    endloop
  endfacet
  facet normal -0 1 -0
    outer loop
      vertex 15.006 7 17.3475
      vertex 16.5816 7 16.2599
      vertex -30.5 7 30
    endloop
  endfacet
  facet normal 0 1 -0
    outer loop
      vertex 20.2723 7 16.7081
      vertex 30.5 7 7
      vertex 18.4821 7 16.0292
    endloop
  endfacet
  facet normal 0 1 -0
    outer loop
      vertex 21.5418 7 18.1411
      vertex 30.5 7 7
      vertex 20.2723 7 16.7081
    endloop
  endfacet
  facet normal 0 1 0
    outer loop
      vertex 30.5 7 30
      vertex 30.5 7 7
      vertex 21.5418 7 18.1411
    endloop
  endfacet
  facet normal 0 1 0
    outer loop
      vertex 21.5418 7 21.8589
      vertex 30.5 7 30
      vertex 22 7 20
    endloop
  endfacet
  facet normal 0 1 0
    outer loop
      vertex 20.2723 7 23.2919
      vertex 30.5 7 30
      vertex 21.5418 7 21.8589
    endloop
  endfacet
  facet normal 0 1 0
    outer loop
      vertex 16.5816 7 23.7401
      vertex -30.5 7 30
      vertex 18.4821 7 23.9708
    endloop
  endfacet
  facet normal 0 1 0
    outer loop
      vertex 30.5 7 30
      vertex 20.2723 7 23.2919
      vertex 18.4821 7 23.9708
    endloop
  endfacet
  facet normal 0 1 0
    outer loop
      vertex 30.5 7 30
      vertex 18.4821 7 23.9708
      vertex -30.5 7 30
    endloop
  endfacet
  facet normal -0 1 0
    outer loop
      vertex 16.5816 7 23.7401
      vertex 15.006 7 22.6525
      vertex -30.5 7 30
    endloop
  endfacet
  facet normal -0 1 0
    outer loop
      vertex 15.006 7 22.6525
      vertex 14.1162 7 20.9573
      vertex -30.5 7 30
    endloop
  endfacet
  facet normal 0 1 -0
    outer loop
      vertex -15.7277 7 16.7081
      vertex 30.5 7 7
      vertex -17.5179 7 16.0292
    endloop
  endfacet
endsolid OpenSCAD_Model
